<svg version="1.1" xmlns="http://www.w3.org/2000/svg" style="display: block;" viewBox="0 0 2048 2048" width="1024" height="1024" preserveAspectRatio="none">
<defs>
	<linearGradient id="Gradient1" gradientUnits="userSpaceOnUse" x1="995.733" y1="599.555" x2="1917.29" y2="898.418">
		<stop class="stop0" offset="0" stop-opacity="1" stop-color="rgb(44,169,255)"/>
		<stop class="stop1" offset="1" stop-opacity="1" stop-color="rgb(85,229,253)"/>
	</linearGradient>
	<linearGradient id="Gradient2" gradientUnits="userSpaceOnUse" x1="1298.98" y1="1393.33" x2="391.571" y2="1605.72">
		<stop class="stop0" offset="0" stop-opacity="1" stop-color="rgb(45,170,255)"/>
		<stop class="stop1" offset="1" stop-opacity="1" stop-color="rgb(83,226,253)"/>
	</linearGradient>
	<linearGradient id="Gradient3" gradientUnits="userSpaceOnUse" x1="871.969" y1="534.104" x2="1076.23" y2="148.787">
		<stop class="stop0" offset="0" stop-opacity="1" stop-color="rgb(65,199,254)"/>
		<stop class="stop1" offset="1" stop-opacity="1" stop-color="rgb(89,233,253)"/>
	</linearGradient>
	<linearGradient id="Gradient4" gradientUnits="userSpaceOnUse" x1="612.474" y1="1018.63" x2="867.72" y2="464.383">
		<stop class="stop0" offset="0" stop-opacity="1" stop-color="rgb(45,169,255)"/>
		<stop class="stop1" offset="1" stop-opacity="1" stop-color="rgb(69,205,254)"/>
	</linearGradient>
	<linearGradient id="Gradient5" gradientUnits="userSpaceOnUse" x1="732.323" y1="1395.2" x2="238.982" y2="613.448">
		<stop class="stop0" offset="0" stop-opacity="1" stop-color="rgb(46,171,255)"/>
		<stop class="stop1" offset="1" stop-opacity="1" stop-color="rgb(85,229,253)"/>
	</linearGradient>
	<linearGradient id="Gradient6" gradientUnits="userSpaceOnUse" x1="1393.48" y1="817.571" x2="1450.85" y2="1812.22">
		<stop class="stop0" offset="0" stop-opacity="1" stop-color="rgb(44,168,255)"/>
		<stop class="stop1" offset="1" stop-opacity="1" stop-color="rgb(85,230,253)"/>
	</linearGradient>
</defs>
<path transform="translate(0,0)" fill="rgb(0,0,0)" d="M 0 0 L 2048 0 L 2048 2048 L 0 2048 L 0 0 z"/>
<path transform="translate(0,0)" fill="url(#Gradient6)" d="M 679.638 408.298 C 688.28 380.189 720.188 334.112 739.296 311.526 C 804.686 234.233 902.111 187.839 1002.51 180.355 C 1085.36 174.179 1186.2 195.163 1254.73 243.826 C 1264.93 251.075 1272.39 261.28 1281.86 269.378 L 1282.83 270.191 C 1290.33 274.093 1301.25 283.792 1307.63 289.546 C 1344.31 322.653 1376.73 377.712 1391.67 425.226 C 1401.64 457.107 1408.62 489.846 1412.52 523.021 C 1446.49 523.207 1482.6 525.636 1516.41 528.393 C 1528.22 529.355 1540.23 529.632 1552 531.023 C 1644.05 544.658 1723.45 580.412 1789.26 646.96 C 1857.92 716.381 1896.81 813.549 1898.04 910.952 C 1898.45 943.968 1894.06 978.394 1883.83 1009.7 C 1879.71 1022.31 1873.77 1033.83 1869.42 1047.06 C 1866.98 1056.87 1858.89 1076.03 1854.5 1084.78 C 1825.07 1143.55 1775.07 1192.88 1718.62 1225.98 C 1711.09 1230.4 1673.09 1251.66 1666.18 1252.45 C 1682.51 1298.65 1705.32 1361.75 1710.8 1408.51 C 1735.91 1622.75 1561.82 1824.94 1343.32 1819.27 C 1330.84 1818.95 1317.37 1819.77 1304.86 1819.21 C 1292.46 1818.65 1280.4 1815.92 1267.88 1815.65 C 1255.77 1813.84 1243.07 1813.54 1231.21 1811.45 C 1156.35 1798.26 1093.22 1759.24 1037.4 1709.14 C 1028.23 1700.92 1018.49 1692.07 1008.86 1684.2 C 907.755 1753.65 827.722 1816.88 699.212 1815.72 C 670.993 1815.47 650.647 1816.02 621.978 1810.94 C 568.962 1801.56 520.055 1784.84 474.953 1754.9 C 471.756 1752.78 454.701 1741.41 452.538 1738.66 C 439.699 1732.11 415.039 1708.75 404.214 1697.82 C 359.87 1653.03 312.113 1572.07 313.29 1507.86 C 307.576 1499.37 302.935 1463.95 302.384 1453.21 C 299.09 1389.12 309.688 1333.55 336.974 1275.46 C 341.996 1264.77 354.701 1239.48 362.452 1230.87 C 364.283 1226.75 364.916 1225.98 367.626 1222.27 C 277.785 1153.76 206.676 1111.25 165.445 998.04 C 133.027 909.029 140.793 800.442 179.742 714.9 C 215.436 634.881 281.711 572.506 363.745 541.723 C 367.489 538.552 374.75 535.107 379.251 533.038 C 454.196 498.589 560.408 495.161 637.445 524.245 C 652.213 488.528 664.486 446.105 679.638 408.298 z"/>
<path transform="translate(0,0)" fill="url(#Gradient5)" d="M 679.638 408.298 C 688.28 380.189 720.188 334.112 739.296 311.526 C 804.686 234.233 902.111 187.839 1002.51 180.355 C 1085.36 174.179 1186.2 195.163 1254.73 243.826 C 1264.93 251.075 1272.39 261.28 1281.86 269.378 L 1282.83 270.191 C 1290.33 274.093 1301.25 283.792 1307.63 289.546 C 1344.31 322.653 1376.73 377.712 1391.67 425.226 C 1401.64 457.107 1408.62 489.846 1412.52 523.021 C 1397.01 525.016 1351.29 521.459 1332.27 520.573 L 1225.27 515.13 C 1187.39 512.901 1150.32 510.212 1112.28 509.878 C 1094.41 555.393 1079.46 604.871 1061.97 648.471 C 1037.02 710.665 1026.65 789.672 958.517 816.698 C 953.53 818.676 914.839 831.51 914.267 832.127 C 907.284 834.779 894.192 833.908 886.652 831.911 C 879.9 854.716 870.473 878.969 862.243 901.481 C 842.043 956.733 821.306 1011.77 802.307 1067.47 C 797.461 1081.68 790.002 1095.27 785.249 1109.62 C 793.053 1114.01 831.347 1144.16 841.077 1151.88 C 883.831 1185.83 930.054 1219.79 971.69 1254.72 C 967.89 1254.4 956.557 1247.5 951.592 1245.87 C 925.658 1237.09 886.675 1237.58 860.98 1246.65 C 838.452 1254.61 809.464 1275.79 788.991 1289.63 L 725.676 1332.26 L 655.045 1379.55 C 638.983 1390.24 621.1 1401.47 605.986 1413.26 C 585.313 1397.9 563.193 1379.34 543.033 1362.99 L 431.463 1272.52 C 414.504 1258.91 385.763 1234.33 368.583 1222.93 C 366.28 1226.84 365.612 1227.6 362.452 1230.87 C 364.283 1226.75 364.916 1225.98 367.626 1222.27 C 277.785 1153.76 206.676 1111.25 165.445 998.04 C 133.027 909.029 140.793 800.442 179.742 714.9 C 215.436 634.881 281.711 572.506 363.745 541.723 C 367.489 538.552 374.75 535.107 379.251 533.038 C 454.196 498.589 560.408 495.161 637.445 524.245 C 652.213 488.528 664.486 446.105 679.638 408.298 z"/>
<path transform="translate(0,0)" fill="rgb(0,48,138)" d="M 679.638 408.298 C 688.28 380.189 720.188 334.112 739.296 311.526 C 804.686 234.233 902.111 187.839 1002.51 180.355 C 1085.36 174.179 1186.2 195.163 1254.73 243.826 C 1264.93 251.075 1272.39 261.28 1281.86 269.378 L 1282.83 270.191 C 1290.33 274.093 1301.25 283.792 1307.63 289.546 C 1344.31 322.653 1376.73 377.712 1391.67 425.226 C 1401.64 457.107 1408.62 489.846 1412.52 523.021 C 1397.01 525.016 1351.29 521.459 1332.27 520.573 L 1225.27 515.13 C 1187.39 512.901 1150.32 510.212 1112.28 509.878 C 1094.41 555.393 1079.46 604.871 1061.97 648.471 C 1037.02 710.665 1026.65 789.672 958.517 816.698 C 953.53 818.676 914.839 831.51 914.267 832.127 C 907.284 834.779 894.192 833.908 886.652 831.911 C 879.9 854.716 870.473 878.969 862.243 901.481 C 842.043 956.733 821.306 1011.77 802.307 1067.47 C 797.461 1081.68 790.002 1095.27 785.249 1109.62 L 783.349 1108.68 C 791.525 1083.87 788.97 1077.78 786.979 1052.83 C 780.545 972.257 726.029 939.557 668.474 892.626 C 626.486 858.222 584.15 824.247 541.47 790.705 C 566.238 730.741 586.084 667.571 608.854 606.763 C 618.957 579.782 629.06 551.752 637.445 524.245 C 652.213 488.528 664.486 446.105 679.638 408.298 z"/>
<path transform="translate(0,0)" fill="url(#Gradient4)" d="M 679.638 408.298 C 681.792 414.844 675.025 420.395 679.174 427.001 C 683.869 427.788 681.365 424.553 687.357 425.593 L 688.079 426.652 C 694.403 435.722 694.623 430.958 702.394 433.194 C 724.055 439.427 734.108 460.812 753.761 470.506 C 760.305 473.76 764.237 468.014 775.983 474.159 L 774.919 473.785 C 788.343 496.028 786.756 490.251 811.744 488.049 C 816.551 487.625 833.126 504.591 842.162 503.8 C 846.154 503.45 855.081 520.797 860.019 516.503 C 863.761 514.038 870.189 507.168 873.222 506.922 C 880.189 510.249 887.996 514.2 895.021 517.231 C 900.688 519.675 911.68 528.473 916.788 528.911 L 922.671 525.823 C 940.236 530.959 943.704 532.182 962.49 529.499 C 977.01 527.426 970.256 531.973 984.288 522.732 C 987.03 523.488 987.887 524.516 990.043 526.335 C 992.764 526.228 993.53 525.272 995.819 523.679 L 996.046 529.455 L 924.002 729.224 C 911.743 762.949 898.121 798.088 886.652 831.911 C 879.9 854.716 870.473 878.969 862.243 901.481 C 842.043 956.733 821.306 1011.77 802.307 1067.47 C 797.461 1081.68 790.002 1095.27 785.249 1109.62 L 783.349 1108.68 C 791.525 1083.87 788.97 1077.78 786.979 1052.83 C 780.545 972.257 726.029 939.557 668.474 892.626 C 626.486 858.222 584.15 824.247 541.47 790.705 C 566.238 730.741 586.084 667.571 608.854 606.763 C 618.957 579.782 629.06 551.752 637.445 524.245 C 652.213 488.528 664.486 446.105 679.638 408.298 z"/>
<path transform="translate(0,0)" fill="url(#Gradient3)" d="M 679.638 408.298 C 688.28 380.189 720.188 334.112 739.296 311.526 C 804.686 234.233 902.111 187.839 1002.51 180.355 C 1085.36 174.179 1186.2 195.163 1254.73 243.826 C 1264.93 251.075 1272.39 261.28 1281.86 269.378 L 1282.83 270.191 L 1281.95 269.817 C 1270.94 265.035 1261.22 258.515 1249.61 254.423 C 1187.23 232.429 1118.27 251.667 1080.75 307.327 C 1072.55 319.483 1067.94 331.332 1063.09 345.029 C 1045.25 395.394 1026.59 445.48 1008.31 495.686 C 1004.24 506.881 999.852 518.196 996.046 529.455 L 995.819 523.679 C 993.53 525.272 992.764 526.228 990.043 526.335 C 987.887 524.516 987.03 523.488 984.288 522.732 C 970.256 531.973 977.01 527.426 962.49 529.499 C 943.704 532.182 940.236 530.959 922.671 525.823 L 916.788 528.911 C 911.68 528.473 900.688 519.675 895.021 517.231 C 887.996 514.2 880.189 510.249 873.222 506.922 C 870.189 507.168 863.761 514.038 860.019 516.503 C 855.081 520.797 846.154 503.45 842.162 503.8 C 833.126 504.591 816.551 487.625 811.744 488.049 C 786.756 490.251 788.343 496.028 774.919 473.785 L 775.983 474.159 C 764.237 468.014 760.305 473.76 753.761 470.506 C 734.108 460.812 724.055 439.427 702.394 433.194 C 694.623 430.958 694.403 435.722 688.079 426.652 L 687.357 425.593 C 681.365 424.553 683.869 427.788 679.174 427.001 C 675.025 420.395 681.792 414.844 679.638 408.298 z"/>
<path transform="translate(0,0)" fill="rgb(0,48,138)" d="M 363.745 541.723 C 367.489 538.552 374.75 535.107 379.251 533.038 C 454.196 498.589 560.408 495.161 637.445 524.245 C 629.06 551.752 618.957 579.782 608.854 606.763 C 586.084 667.571 566.238 730.741 541.47 790.705 C 584.15 824.247 626.486 858.222 668.474 892.626 C 726.029 939.557 780.545 972.257 786.979 1052.83 C 788.97 1077.78 791.525 1083.87 783.349 1108.68 C 774.716 1103.16 766.281 1097.34 758.061 1091.22 C 720.032 1062.48 682.404 1033.21 645.187 1003.42 C 583.705 955.512 522.494 907.255 461.556 858.655 C 415.321 822.064 363.64 784.691 320.645 744 C 307.976 732.01 297.645 703.211 295.006 685.988 C 285.951 626.888 316.296 576.147 363.248 542.706 C 363.414 542.378 363.579 542.051 363.745 541.723 z"/>
<path transform="translate(0,0)" fill="url(#Gradient2)" d="M 1235.56 1110.52 L 1239.13 1116.57 L 1238.35 1117.76 C 1231.88 1127.58 1219.41 1138.06 1211.45 1147.44 C 1188.77 1174.17 1171.98 1217.96 1180.25 1253.13 C 1188.55 1288.44 1203.87 1326.75 1215.76 1361.63 C 1226.17 1392.46 1236.79 1423.21 1247.62 1453.89 C 1253.63 1471.32 1260.67 1493.78 1267.77 1510.48 C 1249.09 1524.75 1215.45 1545.14 1194.54 1558.92 C 1147.02 1590.19 1099.65 1621.7 1052.45 1653.45 C 1045.92 1657.84 1011.73 1679.87 1008.86 1684.2 C 907.755 1753.65 827.722 1816.88 699.212 1815.72 C 670.993 1815.47 650.647 1816.02 621.978 1810.94 C 568.962 1801.56 520.055 1784.84 474.953 1754.9 C 471.756 1752.78 454.701 1741.41 452.538 1738.66 C 439.699 1732.11 415.039 1708.75 404.214 1697.82 C 359.87 1653.03 312.113 1572.07 313.29 1507.86 C 307.576 1499.37 302.935 1463.95 302.384 1453.21 C 299.09 1389.12 309.688 1333.55 336.974 1275.46 C 341.996 1264.77 354.701 1239.48 362.452 1230.87 C 365.612 1227.6 366.28 1226.84 368.583 1222.93 C 385.763 1234.33 414.504 1258.91 431.463 1272.52 L 543.033 1362.99 C 563.193 1379.34 585.313 1397.9 605.986 1413.26 C 621.1 1401.47 638.983 1390.24 655.045 1379.55 L 725.676 1332.26 L 788.991 1289.63 C 809.464 1275.79 838.452 1254.61 860.98 1246.65 C 886.675 1237.58 925.658 1237.09 951.592 1245.87 C 956.557 1247.5 967.89 1254.4 971.69 1254.72 C 979.36 1259.99 990.473 1270.07 997.324 1276.42 C 1011.45 1269.1 1024.87 1258.85 1037.91 1249.75 C 1087.15 1215.37 1136.72 1181.53 1187.52 1149.48 C 1202.33 1140.13 1216.87 1130.59 1230.85 1120.02 C 1234.73 1117.08 1231.38 1115.09 1235.56 1110.52 z"/>
<path transform="translate(0,0)" fill="rgb(0,48,138)" d="M 362.452 1230.87 C 365.612 1227.6 366.28 1226.84 368.583 1222.93 C 385.763 1234.33 414.504 1258.91 431.463 1272.52 L 543.033 1362.99 C 563.193 1379.34 585.313 1397.9 605.986 1413.26 C 621.1 1401.47 638.983 1390.24 655.045 1379.55 L 725.676 1332.26 L 788.991 1289.63 C 809.464 1275.79 838.452 1254.61 860.98 1246.65 C 886.675 1237.58 925.658 1237.09 951.592 1245.87 C 956.557 1247.5 967.89 1254.4 971.69 1254.72 C 979.36 1259.99 990.473 1270.07 997.324 1276.42 C 990.59 1283.04 977.909 1290.99 969.722 1296.43 L 927.368 1324.48 L 769.652 1428.29 L 588.314 1547.6 C 567.462 1561.16 545.454 1575.08 524.944 1589.06 C 485.98 1615.62 440.95 1615.81 398.056 1598.56 C 366.903 1583.44 342.768 1563.74 324.892 1533.64 C 320.438 1526.15 317.394 1514.16 313.29 1507.86 C 307.576 1499.37 302.935 1463.95 302.384 1453.21 C 299.09 1389.12 309.688 1333.55 336.974 1275.46 C 341.996 1264.77 354.701 1239.48 362.452 1230.87 z"/>
<path transform="translate(0,0)" fill="rgb(86,234,253)" d="M 313.29 1507.86 C 317.394 1514.16 320.438 1526.15 324.892 1533.64 C 342.768 1563.74 366.903 1583.44 398.056 1598.56 C 397.092 1607.75 399.898 1604.83 401.024 1612.95 C 402.772 1614.59 403.839 1615.44 405.591 1616.29 C 410.707 1618.75 417.211 1639.56 417.778 1644.87 C 419.319 1659.3 420.767 1677.35 422.785 1691.58 L 421.963 1692.33 L 416.919 1688.44 C 414.494 1689.46 414.589 1689.79 412.941 1691.94 C 412.974 1694.63 413.089 1693.36 414.45 1695.56 C 419.575 1703.85 413.897 1708.71 424.594 1713.89 C 430.039 1714.02 430.314 1713.06 434.039 1715.51 C 435.959 1720.59 432.909 1720.11 433.997 1721.58 C 437.398 1726.18 451.402 1732.66 452.538 1738.66 C 439.699 1732.11 415.039 1708.75 404.214 1697.82 C 359.87 1653.03 312.113 1572.07 313.29 1507.86 z"/>
<path transform="translate(0,0)" fill="url(#Gradient1)" d="M 1112.28 509.878 C 1150.32 510.212 1187.39 512.901 1225.27 515.13 L 1332.27 520.573 C 1351.29 521.459 1397.01 525.016 1412.52 523.021 C 1446.49 523.207 1482.6 525.636 1516.41 528.393 C 1528.22 529.355 1540.23 529.632 1552 531.023 C 1644.05 544.658 1723.45 580.412 1789.26 646.96 C 1857.92 716.381 1896.81 813.549 1898.04 910.952 C 1898.45 943.968 1894.06 978.394 1883.83 1009.7 C 1879.71 1022.31 1873.77 1033.83 1869.42 1047.06 C 1866.98 1056.87 1858.89 1076.03 1854.5 1084.78 C 1825.07 1143.55 1775.07 1192.88 1718.62 1225.98 C 1711.09 1230.4 1673.09 1251.66 1666.18 1252.45 C 1657.28 1227.52 1649.3 1201.47 1640.92 1176.24 C 1617.22 1103.26 1592.88 1030.49 1567.88 957.935 L 1361.97 948.416 C 1334.77 947.247 1307.54 946.787 1280.35 944.707 C 1274.25 944.241 1268.29 943.81 1262.29 942.519 C 1242.94 938.523 1224.8 930.051 1209.31 917.781 C 1189.13 902.012 1161.25 861.616 1158.33 837.355 C 1155.05 836.04 1146.84 834.611 1143.18 834.685 C 1121.99 828.042 1108.52 834.912 1089.3 832.527 C 1081.84 833.731 1078.06 836.692 1073.43 837.427 C 1060.52 836.963 1047.7 836.054 1034.67 835.651 C 1022.11 835.262 1004.95 835.703 992.797 834.105 C 982.477 834.392 972.107 832.943 961.844 832.735 C 945.951 832.412 930.18 832.55 914.267 832.127 C 914.839 831.51 953.53 818.676 958.517 816.698 C 1026.65 789.672 1037.02 710.665 1061.97 648.471 C 1079.46 604.871 1094.41 555.393 1112.28 509.878 z"/>
<path transform="translate(0,0)" fill="rgb(0,48,138)" d="M 1158.33 837.355 L 1159.32 837.508 C 1175.15 839.806 1199.13 839.644 1215.49 840.538 L 1341.31 846.325 C 1433.78 849.814 1528.41 855.276 1620.95 859.802 C 1649.77 861.051 1678.57 862.714 1707.34 864.792 C 1727.87 866.253 1754.75 867.535 1774.34 873.406 C 1801.59 881.867 1825.53 898.588 1842.85 921.254 C 1866.66 952.876 1874.48 995.211 1871.22 1034.77 C 1870.89 1038.74 1869.01 1043.2 1869.42 1047.06 C 1866.98 1056.87 1858.89 1076.03 1854.5 1084.78 C 1825.07 1143.55 1775.07 1192.88 1718.62 1225.98 C 1711.09 1230.4 1673.09 1251.66 1666.18 1252.45 C 1657.28 1227.52 1649.3 1201.47 1640.92 1176.24 C 1617.22 1103.26 1592.88 1030.49 1567.88 957.935 L 1361.97 948.416 C 1334.77 947.247 1307.54 946.787 1280.35 944.707 C 1274.25 944.241 1268.29 943.81 1262.29 942.519 C 1242.94 938.523 1224.8 930.051 1209.31 917.781 C 1189.13 902.012 1161.25 861.616 1158.33 837.355 z"/>
<path transform="translate(0,0)" fill="rgb(30,146,215)" d="M 992.797 834.105 C 1007.95 831.23 1020.5 835.973 1031.02 833.287 C 1025.22 827.175 1013.19 828.411 1005.02 827.837 C 1017.79 826.508 1077.2 827.495 1089.3 832.527 C 1081.84 833.731 1078.06 836.692 1073.43 837.427 C 1060.52 836.963 1047.7 836.054 1034.67 835.651 C 1022.11 835.262 1004.95 835.703 992.797 834.105 z"/>
<path transform="translate(0,0)" fill="rgb(0,0,0)" d="M 914.267 832.127 C 930.18 832.55 945.951 832.412 961.844 832.735 C 972.107 832.943 982.477 834.392 992.797 834.105 C 1004.95 835.703 1022.11 835.262 1034.67 835.651 C 1047.7 836.054 1060.52 836.963 1073.43 837.427 C 1095.71 839.044 1112.6 839.649 1134.71 840.058 C 1137.28 842.863 1140.02 845.316 1141.23 848.867 C 1146.65 870.891 1164.18 916.438 1172.07 939.287 C 1191.3 996.058 1210.93 1052.69 1230.96 1109.18 L 1233.42 1107.57 C 1234.5 1108.88 1234.77 1109.03 1235.56 1110.52 C 1231.38 1115.09 1234.73 1117.08 1230.85 1120.02 C 1216.87 1130.59 1202.33 1140.13 1187.52 1149.48 C 1136.72 1181.53 1087.15 1215.37 1037.91 1249.75 C 1024.87 1258.85 1011.45 1269.1 997.324 1276.42 C 990.473 1270.07 979.36 1259.99 971.69 1254.72 C 930.054 1219.79 883.831 1185.83 841.077 1151.88 C 831.347 1144.16 793.053 1114.01 785.249 1109.62 C 790.002 1095.27 797.461 1081.68 802.307 1067.47 C 821.306 1011.77 842.043 956.733 862.243 901.481 C 870.473 878.969 879.9 854.716 886.652 831.911 C 894.192 833.908 907.284 834.779 914.267 832.127 z"/>
<path transform="translate(0,0)" fill="rgb(0,48,138)" d="M 1239.13 1116.57 C 1242.22 1126.32 1247.66 1139.56 1251.25 1149.64 C 1259.22 1172.01 1266.96 1194.46 1274.47 1216.98 L 1374.51 1515.32 L 1402.97 1598.63 C 1409.22 1617.21 1416.5 1635.82 1419.03 1655.34 C 1422.33 1682.45 1417.44 1709.93 1404.99 1734.25 C 1382.91 1776.7 1339.26 1805.38 1291.98 1812.66 C 1285.17 1813.71 1274.17 1813.74 1267.88 1815.65 C 1255.77 1813.84 1243.07 1813.54 1231.21 1811.45 C 1156.35 1798.26 1093.22 1759.24 1037.4 1709.14 C 1028.23 1700.92 1018.49 1692.07 1008.86 1684.2 C 1011.73 1679.87 1045.92 1657.84 1052.45 1653.45 C 1099.65 1621.7 1147.02 1590.19 1194.54 1558.92 C 1215.45 1545.14 1249.09 1524.75 1267.77 1510.48 C 1260.67 1493.78 1253.63 1471.32 1247.62 1453.89 C 1236.79 1423.21 1226.17 1392.46 1215.76 1361.63 C 1203.87 1326.75 1188.55 1288.44 1180.25 1253.13 C 1171.98 1217.96 1188.77 1174.17 1211.45 1147.44 C 1219.41 1138.06 1231.88 1127.58 1238.35 1117.76 L 1239.13 1116.57 z"/>
<path transform="translate(0,0)" fill="rgb(25,132,192)" d="M 1089.3 832.527 C 1108.52 834.912 1121.99 828.042 1143.18 834.685 C 1135.22 836.332 1124.69 830.309 1113.91 836.859 L 1113.59 837.812 C 1123.2 839.615 1141.92 832.404 1144.92 848.527 L 1144.32 850.258 L 1144.77 851.149 C 1143.87 850.189 1143.04 849.396 1141.97 848.624 L 1141.23 848.867 C 1140.02 845.316 1137.28 842.863 1134.71 840.058 C 1112.6 839.649 1095.71 839.044 1073.43 837.427 C 1078.06 836.692 1081.84 833.731 1089.3 832.527 z"/>
<path transform="translate(0,0)" fill="rgb(253,252,253)" d="M 204.742 1988.67 C 208.338 1988.54 217.09 1988.03 220.274 1989.51 C 237.954 1997.68 232.141 2012.84 216.583 2018.77 C 212.123 2019.47 206.915 2021.55 204.921 2016.92 C 205.855 2012.24 210.793 2005.67 213.585 2001.38 L 199.664 2000.98 C 201.143 1996.25 202.68 1993.13 204.742 1988.67 z"/>
<path transform="translate(0,0)" fill="rgb(253,252,253)" d="M 182.166 1988.6 L 196.299 1988.68 C 194.231 1994.66 191.545 2001.2 189.241 2007.17 L 202.158 2007.64 L 193.882 2026.64 L 193.233 2027.25 L 192.07 2027.11 C 191.895 2024.09 192.048 2023.37 190.93 2020.53 C 186.942 2019.53 174.624 2019.91 169.82 2019.94 C 172.16 2011.74 178.726 1996.97 182.166 1988.6 z"/>
<path transform="translate(0,0)" fill="rgb(253,252,253)" d="M 269.54 2005.88 C 272.042 2005.96 280.296 2005.61 281.549 2007.81 C 285.138 2014.1 282.963 2022.73 276.555 2026.5 C 272.654 2027.15 271.892 2026.53 268.268 2025.07 L 268.216 2022.92 C 270.715 2020.58 270.91 2022.93 276.652 2022.71 L 277.497 2020.7 C 271.502 2017.27 261.796 2019.87 269.54 2005.88 z"/>
<path transform="translate(0,0)" fill="rgb(253,252,253)" d="M 306.931 2002.18 C 318.834 2002.28 326.515 2004.63 320.306 2018.18 C 315.416 2019.82 311.804 2021.53 307.745 2018.11 C 305.986 2013.97 306.784 2006.99 306.931 2002.18 z"/>
<path transform="translate(0,0)" fill="rgb(0,0,0)" d="M 311.203 2005.27 C 314.488 2005.99 314.845 2005.79 317.386 2008.07 C 318.669 2011.24 317.941 2012.92 317.26 2016.29 C 314.53 2016.36 314.234 2016.64 311.853 2015.48 C 310.088 2012.88 310.947 2008.67 311.203 2005.27 z"/>
<path transform="translate(0,0)" fill="rgb(253,252,253)" d="M 336.458 1999.43 C 338.437 2000.31 337.73 1999.89 339.275 2001.54 L 338.408 2005.22 L 339.546 2006.06 L 341.402 2005.6 C 342.896 2002.9 343.451 2001.36 345.935 1999.49 C 348.339 2001.63 347.874 2003.48 348.642 2007.51 C 344.019 2014.58 348.758 2014.49 344.527 2021.18 C 339.936 2014.67 345.083 2011.1 339.08 2008.57 C 337.085 2010.95 337.367 2015.42 336.249 2019.78 L 334.702 2020.03 C 329.653 2014.55 331.915 2004.81 336.458 1999.43 z"/>
<path transform="translate(0,0)" fill="rgb(191,191,196)" d="M 55.8615 2005.92 C 61.9191 2006.12 62.7671 2005.45 66.6589 2010.2 C 67.6267 2014 67.3845 2014.35 66.542 2018.32 L 64.8165 2019.16 C 53.1337 2021.72 49.1995 2015.4 55.8615 2005.92 z"/>
<path transform="translate(0,0)" fill="rgb(0,0,0)" d="M 56.7391 2008.76 C 59.1146 2007.21 62.2927 2007.87 63.8549 2010.23 C 65.4171 2012.6 64.7776 2015.78 62.4231 2017.36 C 60.0461 2018.95 56.8266 2018.31 55.2495 2015.92 C 53.6724 2013.53 54.3409 2010.32 56.7391 2008.76 z"/>
<path transform="translate(0,0)" fill="rgb(253,252,253)" d="M 392.609 2006.52 C 394.971 2005.24 397.851 2005.35 400.1 2006.83 C 402.348 2008.31 403.599 2010.91 403.353 2013.59 C 403.107 2016.27 401.404 2018.59 398.924 2019.64 C 395.346 2021.14 391.217 2019.58 389.533 2016.08 C 387.849 2012.59 389.202 2008.38 392.609 2006.52 z"/>
<path transform="translate(0,0)" fill="rgb(253,252,253)" d="M 288.04 2006.6 C 290.358 2005.28 293.213 2005.34 295.479 2006.75 C 297.745 2008.16 299.059 2010.69 298.902 2013.35 C 298.745 2016.02 297.143 2018.38 294.727 2019.51 C 291.191 2021.17 286.977 2019.74 285.181 2016.27 C 283.384 2012.8 284.646 2008.54 288.04 2006.6 z"/>
<path transform="translate(0,0)" fill="rgb(253,252,253)" d="M 254.811 2006.46 C 257.187 2005.23 260.047 2005.41 262.253 2006.92 C 264.459 2008.44 265.655 2011.04 265.363 2013.7 C 265.072 2016.36 263.342 2018.64 260.861 2019.64 C 257.265 2021.09 253.165 2019.46 251.548 2015.94 C 249.931 2012.41 251.367 2008.24 254.811 2006.46 z"/>
<path transform="translate(0,0)" fill="rgb(253,252,253)" d="M 405.802 2005.54 C 412.87 2006.78 419.965 2004.79 420.817 2014.77 C 419.692 2017.57 419.921 2017.97 417.482 2019.52 L 415.926 2018.62 L 416.169 2015.7 C 415.259 2011.64 415.944 2011.85 413.53 2009.19 C 410.775 2010.57 409.376 2015.71 407.798 2019.25 L 406.777 2019.62 C 405.65 2014.36 405.841 2010.87 405.802 2005.54 z"/>
<path transform="translate(0,0)" fill="rgb(253,252,253)" d="M 351.133 2005.18 C 357.684 2007.2 352.936 2010.18 356.489 2016.37 L 358.158 2016.42 C 361.551 2011.34 359.96 2009.04 362.45 2005.91 L 364.034 2006.08 L 364.771 2008.03 C 364.992 2011.77 365.727 2014.83 363.81 2017.84 C 361.069 2020.05 361.288 2020.23 357.857 2020.56 C 349.413 2017.95 350.61 2012.25 351.133 2005.18 z"/>
<path transform="translate(0,0)" fill="rgb(253,252,253)" d="M 369.126 2005.76 C 373.155 2005.86 376.748 2005.34 378.924 2009.02 L 378.008 2009.92 L 372.543 2009.43 L 373.385 2011.06 C 376.105 2012.37 377.045 2012.63 379.303 2014.65 C 378.783 2018.48 378.886 2017.34 375.971 2020.79 C 372.035 2020.01 369.882 2019.72 367.352 2016.7 L 367.819 2015.57 L 374.362 2016.47 L 374.769 2015.76 C 372.704 2013.79 371.384 2013.59 368.649 2012.42 C 367.477 2009.14 367.977 2009.87 369.126 2005.76 z"/>
<path transform="translate(0,0)" fill="rgb(253,252,253)" d="M 240.001 2001.34 L 242.66 2002.44 C 246.157 2008.1 241.865 2010.86 244.887 2016.4 C 247.506 2016.91 248.356 2016.87 250.262 2018.78 C 245.491 2020.07 243.664 2021.48 240.075 2017.85 C 238.501 2013.33 239.613 2006.4 240.001 2001.34 z"/>
<path transform="translate(0,0)" fill="rgb(191,191,196)" d="M 146.146 2001.62 C 147.986 2003.08 147.343 2002.93 148.429 2005.78 C 151.507 2007.4 153.299 2006.19 156.801 2007.39 C 158.712 2010.85 158.306 2015.63 157.438 2019.37 C 155.853 2016.89 156.1 2015.16 155.94 2012.16 L 155.88 2010.88 C 155.647 2009.05 155.979 2010.02 154.464 2008.15 L 150.774 2007.81 C 148.299 2010.16 147.684 2014.61 146.552 2018.38 C 145.973 2012.74 146.129 2007.29 146.146 2001.62 z"/>
<path transform="translate(0,0)" fill="rgb(191,191,196)" d="M 32.1123 2002.4 C 35.422 2003.82 41.5294 2016.31 40.4374 2019.46 L 40.1597 2018.68 L 39.1904 2018.39 L 38.368 2015.71 C 37.3089 2012.9 37.3943 2012.71 35.5715 2010.39 C 33.3246 2012.92 33.8104 2013.14 32.9752 2016.85 L 32.6873 2018.16 C 31.9198 2012.54 32.0823 2008.03 32.1123 2002.4 z"/>
<path transform="translate(0,0)" fill="rgb(253,252,253)" d="M 325.047 2005.22 L 328.453 2006.22 C 330.985 2010.41 329.858 2014.55 329.443 2019.82 C 327.002 2019.97 327.833 2020.14 325.692 2019.06 C 324.116 2014.92 324.84 2009.81 325.047 2005.22 z"/>
<path transform="translate(0,0)" fill="rgb(253,252,253)" d="M 382.495 2005.24 C 385.067 2006.01 383.891 2005.4 386.016 2007.08 C 387.368 2011.62 386.496 2015.96 386.053 2020.77 C 383.779 2019.95 384.501 2020.37 382.743 2018.82 C 381.437 2014.37 382.174 2009.95 382.495 2005.24 z"/>
<path transform="translate(0,0)" fill="rgb(191,191,196)" d="M 131.99 2005.5 C 134.503 2009.57 133.304 2016.39 132.525 2020.93 C 129.993 2016.1 130.73 2010.62 131.99 2005.5 z"/>
</svg>