<svg width="1024" height="1024" viewBox="0 0 1024 1024" fill="none" xmlns="http://www.w3.org/2000/svg">
<path d="M339.819 204.149C344.14 190.095 360.094 167.056 369.648 155.763C402.343 117.117 451.056 93.9195 501.255 90.1775C542.68 87.0895 593.1 97.5815 627.365 121.913C632.465 125.538 636.195 130.64 640.93 134.689L641.415 135.096C645.165 137.047 650.625 141.896 653.815 144.773C672.155 161.327 688.365 188.856 695.835 212.613C700.82 228.554 704.31 244.923 706.26 261.511C723.245 261.604 741.3 262.818 758.205 264.197C764.11 264.678 770.115 264.816 776 265.512C822.025 272.329 861.725 290.206 894.63 323.48C928.96 358.191 948.405 406.775 949.02 455.476C949.225 471.984 947.03 489.197 941.915 504.85C939.855 511.155 936.885 516.915 934.71 523.53C933.49 528.435 929.445 538.015 927.25 542.39C912.535 571.775 887.535 596.44 859.31 612.99C855.545 615.2 836.545 625.83 833.09 626.225C841.255 649.325 852.66 680.875 855.4 704.255C867.955 811.375 780.91 912.47 671.66 909.635C665.42 909.475 658.685 909.885 652.43 909.605C646.23 909.325 640.2 907.96 633.94 907.825C627.885 906.92 621.535 906.77 615.605 905.725C578.175 899.13 546.61 879.62 518.7 854.57C514.115 850.46 509.245 846.035 504.43 842.1C453.877 876.825 413.861 908.44 349.606 907.86C335.496 907.735 325.324 908.01 310.989 905.47C284.481 900.78 260.028 892.42 237.477 877.45C235.878 876.39 227.351 870.705 226.269 869.33C219.85 866.055 207.52 854.375 202.107 848.91C179.935 826.515 156.057 786.035 156.645 753.93C153.788 749.685 151.468 731.975 151.192 726.605C149.545 694.56 154.844 666.775 168.487 637.73C170.998 632.385 177.351 619.74 181.226 615.435C182.142 613.375 182.458 612.99 183.813 611.135C138.893 576.88 103.338 555.625 82.7225 499.02C66.5135 454.514 70.3965 400.221 89.871 357.45C107.718 317.441 140.856 286.253 181.873 270.862C183.745 269.276 187.375 267.554 189.626 266.519C227.098 249.295 280.204 247.581 318.723 262.123C326.107 244.264 332.243 223.053 339.819 204.149Z" fill="url(#paint0_linear_1_2)"/>
<path d="M339.819 204.149C344.14 190.095 360.094 167.056 369.648 155.763C402.343 117.117 451.056 93.9195 501.255 90.1775C542.68 87.0895 593.1 97.5815 627.365 121.913C632.465 125.538 636.195 130.64 640.93 134.689L641.415 135.096C645.165 137.047 650.625 141.896 653.815 144.773C672.155 161.327 688.365 188.856 695.835 212.613C700.82 228.554 704.31 244.923 706.26 261.511C698.505 262.508 675.645 260.73 666.135 260.287L612.635 257.565C593.695 256.451 575.16 255.106 556.14 254.939C547.205 277.697 539.73 302.436 530.985 324.236C518.51 355.333 513.325 394.836 479.259 408.349C476.765 409.338 457.42 415.755 457.134 416.064C453.642 417.39 447.096 416.954 443.326 415.956C439.95 427.358 435.236 439.485 431.121 450.741C421.021 478.367 410.653 505.885 401.154 533.735C398.731 540.84 395.001 547.635 392.625 554.81C396.527 557.005 415.674 572.08 420.539 575.94C441.916 592.915 465.027 609.895 485.845 627.36C483.945 627.2 478.278 623.75 475.796 622.935C462.829 618.545 443.337 618.79 430.49 623.325C419.226 627.305 404.732 637.895 394.496 644.815L362.838 666.13L327.523 689.775C319.492 695.12 310.55 700.735 302.993 706.63C292.657 698.95 281.597 689.67 271.517 681.495L215.732 636.26C207.252 629.455 192.882 617.165 184.292 611.465C183.14 613.42 182.806 613.8 181.226 615.435C182.142 613.375 182.458 612.99 183.813 611.135C138.893 576.88 103.338 555.625 82.7225 499.02C66.5135 454.514 70.3965 400.221 89.871 357.45C107.718 317.441 140.856 286.253 181.873 270.862C183.745 269.276 187.375 267.554 189.626 266.519C227.098 249.295 280.204 247.581 318.723 262.123C326.107 244.264 332.243 223.053 339.819 204.149Z" fill="url(#paint1_linear_1_2)"/>
<path d="M339.819 204.149C344.14 190.095 360.094 167.056 369.648 155.763C402.343 117.117 451.056 93.9195 501.255 90.1775C542.68 87.0895 593.1 97.5815 627.365 121.913C632.465 125.538 636.195 130.64 640.93 134.689L641.415 135.096C645.165 137.047 650.625 141.896 653.815 144.773C672.155 161.327 688.365 188.856 695.835 212.613C700.82 228.554 704.31 244.923 706.26 261.511C698.505 262.508 675.645 260.73 666.135 260.287L612.635 257.565C593.695 256.451 575.16 255.106 556.14 254.939C547.205 277.697 539.73 302.436 530.985 324.236C518.51 355.333 513.325 394.836 479.259 408.349C476.765 409.338 457.42 415.755 457.134 416.064C453.642 417.39 447.096 416.954 443.326 415.956C439.95 427.358 435.236 439.485 431.121 450.741C421.021 478.367 410.653 505.885 401.154 533.735C398.731 540.84 395.001 547.635 392.625 554.81L391.674 554.34C395.762 541.935 394.485 538.89 393.49 526.415C390.273 486.128 363.014 469.778 334.237 446.313C313.243 429.111 292.075 412.124 270.735 395.353C283.119 365.371 293.042 333.786 304.427 303.382C309.479 289.891 314.53 275.876 318.723 262.123C326.107 244.264 332.243 223.053 339.819 204.149Z" fill="#350001"/>
<path d="M339.819 204.149C340.896 207.422 337.513 210.197 339.587 213.5C341.935 213.894 340.682 212.276 343.678 212.796L344.039 213.326C347.201 217.861 347.311 215.479 351.197 216.597C362.027 219.713 367.054 230.406 376.88 235.253C380.152 236.88 382.118 234.007 387.991 237.079L387.46 236.892C394.172 248.014 393.378 245.125 405.872 244.024C408.276 243.812 416.563 252.295 421.081 251.9C423.077 251.725 427.54 260.398 430.009 258.251C431.88 257.019 435.094 253.584 436.611 253.461C440.094 255.124 443.998 257.1 447.51 258.615C450.344 259.837 455.84 264.236 458.394 264.455L461.336 262.911C470.118 265.479 471.852 266.091 481.245 264.749C488.505 263.713 485.128 265.986 492.144 261.366C493.515 261.744 493.944 262.258 495.022 263.167C496.382 263.114 496.765 262.636 497.909 261.839L498.023 264.727L462.001 364.612C455.872 381.474 449.06 399.044 443.326 415.955C439.95 427.358 435.236 439.484 431.121 450.74C421.021 478.366 410.653 505.885 401.154 533.735C398.731 540.84 395.001 547.635 392.625 554.81L391.674 554.34C395.762 541.935 394.485 538.89 393.49 526.415C390.273 486.128 363.014 469.778 334.237 446.313C313.243 429.111 292.075 412.123 270.735 395.352C283.119 365.37 293.042 333.785 304.427 303.381C309.479 289.891 314.53 275.876 318.723 262.122C326.107 244.264 332.243 223.052 339.819 204.149Z" fill="url(#paint2_linear_1_2)"/>
<path d="M339.819 204.149C344.14 190.095 360.094 167.056 369.648 155.763C402.343 117.117 451.056 93.9195 501.255 90.1775C542.68 87.0895 593.1 97.5815 627.365 121.913C632.465 125.538 636.195 130.64 640.93 134.689L641.415 135.096L640.975 134.909C635.47 132.518 630.61 129.258 624.805 127.212C593.615 116.215 559.135 125.834 540.375 153.664C536.275 159.742 533.97 165.666 531.545 172.515C522.625 197.697 513.295 222.74 504.155 247.843C502.12 253.441 499.926 259.098 498.023 264.728L497.909 261.84C496.765 262.636 496.382 263.114 495.022 263.168C493.944 262.258 493.515 261.744 492.144 261.366C485.128 265.987 488.505 263.713 481.245 264.75C471.852 266.091 470.118 265.48 461.336 262.912L458.394 264.456C455.84 264.237 450.344 259.838 447.51 258.616C443.998 257.1 440.094 255.125 436.611 253.461C435.094 253.584 431.88 257.019 430.009 258.252C427.54 260.399 423.077 251.725 421.081 251.9C416.563 252.296 408.276 243.813 405.872 244.025C393.378 245.126 394.172 248.014 387.46 236.893L387.991 237.08C382.118 234.007 380.152 236.88 376.88 235.253C367.054 230.406 362.027 219.714 351.197 216.597C347.311 215.479 347.201 217.861 344.039 213.326L343.678 212.797C340.682 212.277 341.935 213.894 339.587 213.501C337.513 210.198 340.896 207.422 339.819 204.149Z" fill="url(#paint3_linear_1_2)"/>
<path d="M181.873 270.862C183.745 269.276 187.375 267.554 189.626 266.519C227.098 249.295 280.204 247.581 318.723 262.123C314.53 275.876 309.479 289.891 304.427 303.382C293.042 333.786 283.119 365.371 270.735 395.353C292.075 412.124 313.243 429.111 334.237 446.313C363.015 469.779 390.273 486.128 393.49 526.415C394.485 538.89 395.763 541.935 391.675 554.34C387.358 551.58 383.141 548.67 379.031 545.61C360.016 531.24 341.202 516.605 322.594 501.71C291.853 477.756 261.247 453.628 230.778 429.328C207.661 411.032 181.82 392.346 160.323 372C153.988 366.005 148.823 351.606 147.503 342.994C142.976 313.444 158.148 288.074 181.624 271.353C181.707 271.189 181.79 271.026 181.873 270.862Z" fill="#350001"/>
<path d="M617.78 555.26L619.565 558.285L619.175 558.88C615.94 563.79 609.705 569.03 605.725 573.72C594.385 587.085 585.99 608.98 590.125 626.565C594.275 644.22 601.935 663.375 607.88 680.815C613.085 696.23 618.395 711.605 623.81 726.945C626.815 735.66 630.335 746.89 633.885 755.24C624.545 762.375 607.725 772.57 597.27 779.46C573.51 795.095 549.825 810.85 526.225 826.725C522.96 828.92 505.865 839.935 504.43 842.1C453.877 876.825 413.861 908.44 349.606 907.86C335.496 907.735 325.324 908.01 310.989 905.47C284.481 900.78 260.028 892.42 237.477 877.45C235.878 876.39 227.35 870.705 226.269 869.33C219.849 866.055 207.519 854.375 202.107 848.91C179.935 826.515 156.057 786.035 156.645 753.93C153.788 749.685 151.468 731.975 151.192 726.605C149.545 694.56 154.844 666.775 168.487 637.73C170.998 632.385 177.351 619.74 181.226 615.435C182.806 613.8 183.14 613.42 184.292 611.465C192.882 617.165 207.252 629.455 215.732 636.26L271.517 681.495C281.597 689.67 292.657 698.95 302.993 706.63C310.55 700.735 319.491 695.12 327.522 689.775L362.838 666.13L394.496 644.815C404.732 637.895 419.226 627.305 430.49 623.325C443.337 618.79 462.829 618.545 475.796 622.935C478.278 623.75 483.945 627.2 485.845 627.36C489.68 629.995 495.236 635.035 498.662 638.21C505.725 634.55 512.435 629.425 518.955 624.875C543.575 607.685 568.36 590.765 593.76 574.74C601.165 570.065 608.435 565.295 615.425 560.01C617.365 558.54 615.69 557.545 617.78 555.26Z" fill="url(#paint4_linear_1_2)"/>
<path d="M181.226 615.435C182.806 613.8 183.14 613.42 184.292 611.465C192.882 617.165 207.252 629.455 215.732 636.26L271.517 681.495C281.597 689.67 292.657 698.95 302.993 706.63C310.55 700.735 319.491 695.12 327.522 689.775L362.838 666.13L394.496 644.815C404.732 637.895 419.226 627.305 430.49 623.325C443.337 618.79 462.829 618.545 475.796 622.935C478.278 623.75 483.945 627.2 485.845 627.36C489.68 629.995 495.236 635.035 498.662 638.21C495.295 641.52 488.954 645.495 484.861 648.215L463.684 662.24L384.826 714.145L294.157 773.8C283.731 780.58 272.727 787.54 262.472 794.53C242.99 807.81 220.475 807.905 199.028 799.28C183.452 791.72 171.384 781.87 162.446 766.82C160.219 763.075 158.697 757.08 156.645 753.93C153.788 749.685 151.468 731.975 151.192 726.605C149.545 694.56 154.844 666.775 168.487 637.73C170.998 632.385 177.351 619.74 181.226 615.435Z" fill="#350001"/>
<path d="M156.645 753.93C158.697 757.08 160.219 763.075 162.446 766.82C171.384 781.87 183.451 791.72 199.028 799.28C198.546 803.875 199.949 802.415 200.512 806.475C201.386 807.295 201.919 807.72 202.795 808.145C205.353 809.375 208.606 819.78 208.889 822.435C209.66 829.65 210.383 838.675 211.392 845.79L210.982 846.165L208.459 844.22C207.247 844.73 207.295 844.895 206.471 845.97C206.487 847.315 206.545 846.68 207.225 847.78C209.788 851.925 206.948 854.355 212.297 856.945C215.019 857.01 215.157 856.53 217.019 857.755C217.979 860.295 216.455 860.055 216.999 860.79C218.699 863.09 225.701 866.33 226.269 869.33C219.849 866.055 207.519 854.375 202.107 848.91C179.935 826.515 156.057 786.035 156.645 753.93Z" fill="#FD5659"/>
<path d="M556.14 254.939C575.16 255.106 593.695 256.451 612.635 257.565L666.135 260.286C675.645 260.729 698.505 262.508 706.26 261.51C723.245 261.603 741.3 262.818 758.205 264.197C764.11 264.678 770.115 264.816 776 265.512C822.025 272.329 861.725 290.206 894.63 323.48C928.96 358.191 948.405 406.775 949.02 455.476C949.225 471.984 947.03 489.197 941.915 504.85C939.855 511.155 936.885 516.915 934.71 523.53C933.49 528.435 929.445 538.015 927.25 542.39C912.535 571.775 887.535 596.44 859.31 612.99C855.545 615.2 836.545 625.83 833.09 626.225C828.64 613.76 824.65 600.735 820.46 588.12C808.61 551.63 796.44 515.245 783.94 478.967L680.985 474.208C667.385 473.624 653.77 473.393 640.175 472.353C637.125 472.12 634.145 471.905 631.145 471.259C621.47 469.261 612.4 465.026 604.655 458.891C594.565 451.006 580.625 430.808 579.165 418.677C577.525 418.02 573.42 417.305 571.59 417.342C560.995 414.021 554.26 417.456 544.65 416.263C540.92 416.865 539.03 418.346 536.715 418.714C530.26 418.482 523.85 418.027 517.335 417.826C511.055 417.631 502.475 417.851 496.398 417.052C491.238 417.196 486.053 416.471 480.922 416.367C472.975 416.206 465.09 416.275 457.134 416.064C457.42 415.755 476.765 409.338 479.259 408.349C513.325 394.836 518.51 355.333 530.985 324.236C539.73 302.436 547.205 277.696 556.14 254.939Z" fill="url(#paint5_linear_1_2)"/>
<path d="M579.165 418.677L579.66 418.754C587.575 419.903 599.565 419.822 607.745 420.269L670.655 423.163C716.89 424.907 764.205 427.638 810.475 429.901C824.885 430.526 839.285 431.357 853.67 432.396C863.935 433.126 877.375 433.768 887.17 436.703C900.795 440.934 912.765 449.294 921.425 460.627C933.33 476.438 937.24 497.606 935.61 517.385C935.445 519.37 934.505 521.6 934.71 523.53C933.49 528.435 929.445 538.015 927.25 542.39C912.535 571.775 887.535 596.44 859.31 612.99C855.545 615.2 836.545 625.83 833.09 626.225C828.64 613.76 824.65 600.735 820.46 588.12C808.61 551.63 796.44 515.245 783.94 478.967L680.985 474.208C667.385 473.624 653.77 473.393 640.175 472.353C637.125 472.12 634.145 471.905 631.145 471.259C621.47 469.261 612.4 465.026 604.655 458.891C594.565 451.006 580.625 430.808 579.165 418.677Z" fill="#350001"/>
<path d="M496.398 417.052C503.975 415.615 510.25 417.986 515.51 416.643C512.61 413.587 506.595 414.205 502.51 413.918C508.895 413.254 538.6 413.747 544.65 416.263C540.92 416.865 539.03 418.346 536.715 418.714C530.26 418.482 523.85 418.027 517.335 417.826C511.055 417.631 502.475 417.851 496.398 417.052Z" fill="#D71E21"/>
<path d="M457.134 416.064C465.09 416.275 472.975 416.206 480.922 416.367C486.053 416.471 491.238 417.196 496.398 417.052C502.475 417.851 511.055 417.631 517.335 417.826C523.85 418.027 530.26 418.482 536.715 418.714C547.855 419.522 556.3 419.824 567.355 420.029C568.64 421.431 570.01 422.658 570.615 424.434C573.325 435.446 582.09 458.219 586.035 469.643C595.65 498.029 605.465 526.345 615.48 554.59L616.71 553.785C617.25 554.44 617.385 554.515 617.78 555.26C615.69 557.545 617.365 558.54 615.425 560.01C608.435 565.295 601.165 570.065 593.76 574.74C568.36 590.765 543.575 607.685 518.955 624.875C512.435 629.425 505.725 634.55 498.662 638.21C495.236 635.035 489.68 629.995 485.845 627.36C465.027 609.895 441.916 592.915 420.539 575.94C415.674 572.08 396.527 557.005 392.625 554.81C395.001 547.635 398.731 540.84 401.154 533.735C410.653 505.885 421.021 478.367 431.121 450.741C435.236 439.485 439.95 427.358 443.326 415.956C447.096 416.954 453.642 417.39 457.134 416.064Z" fill="black"/>
<path d="M619.565 558.285C621.11 563.16 623.83 569.78 625.625 574.82C629.61 586.005 633.48 597.23 637.235 608.49L687.255 757.66L701.485 799.315C704.61 808.605 708.25 817.91 709.515 827.67C711.165 841.225 708.72 854.965 702.495 867.125C691.455 888.35 669.63 902.69 645.99 906.33C642.585 906.855 637.085 906.87 633.94 907.825C627.885 906.92 621.535 906.77 615.605 905.725C578.175 899.13 546.61 879.62 518.7 854.57C514.115 850.46 509.245 846.035 504.43 842.1C505.865 839.935 522.96 828.92 526.225 826.725C549.825 810.85 573.51 795.095 597.27 779.46C607.725 772.57 624.545 762.375 633.885 755.24C630.335 746.89 626.815 735.66 623.81 726.945C618.395 711.605 613.085 696.23 607.88 680.815C601.935 663.375 594.275 644.22 590.125 626.565C585.99 608.98 594.385 587.085 605.725 573.72C609.705 569.03 615.94 563.79 619.175 558.88L619.565 558.285Z" fill="#350001"/>
<path d="M544.65 416.263C554.26 417.456 560.995 414.021 571.59 417.342C567.61 418.166 562.345 415.155 556.955 418.43L556.795 418.906C561.6 419.808 570.96 416.202 572.46 424.263L572.16 425.129L572.385 425.574C571.935 425.094 571.52 424.698 570.985 424.312L570.615 424.433C570.01 422.658 568.64 421.431 567.355 420.029C556.3 419.824 547.855 419.522 536.715 418.713C539.03 418.346 540.92 416.865 544.65 416.263Z" fill="#C0191C"/>
<defs>
<linearGradient id="paint0_linear_1_2" x1="696.74" y1="408.786" x2="725.425" y2="906.11" gradientUnits="userSpaceOnUse">
<stop stop-color="#B30003"/>
<stop offset="1" stop-color="#FD5558"/>
</linearGradient>
<linearGradient id="paint1_linear_1_2" x1="366.162" y1="697.6" x2="119.491" y2="306.724" gradientUnits="userSpaceOnUse">
<stop stop-color="#B30003"/>
<stop offset="1" stop-color="#FD5558"/>
</linearGradient>
<linearGradient id="paint2_linear_1_2" x1="306.237" y1="509.315" x2="433.86" y2="232.191" gradientUnits="userSpaceOnUse">
<stop stop-color="#B30003"/>
<stop offset="1" stop-color="#FE4548"/>
</linearGradient>
<linearGradient id="paint3_linear_1_2" x1="435.985" y1="267.052" x2="538.115" y2="74.3935" gradientUnits="userSpaceOnUse">
<stop stop-color="#FE4144"/>
<stop offset="1" stop-color="#FD595C"/>
</linearGradient>
<linearGradient id="paint4_linear_1_2" x1="649.49" y1="696.665" x2="195.786" y2="802.86" gradientUnits="userSpaceOnUse">
<stop stop-color="#B30003"/>
<stop offset="1" stop-color="#FD5356"/>
</linearGradient>
<linearGradient id="paint5_linear_1_2" x1="497.867" y1="299.777" x2="958.645" y2="449.209" gradientUnits="userSpaceOnUse">
<stop stop-color="#B30003"/>
<stop offset="1" stop-color="#FD5558"/>
</linearGradient>
</defs>
</svg>
